HIERARCHY
ROOT Hips
{
    OFFSET 0.0 0.0 0.0
    CHANNELS 6 Xposition Yposition Zposition Zrotation Xrotation Yrotation
    JOINT LeftHipJoint
    {
        OFFSET 0.1 0.0 0.0
        CHANNELS 3 Zrotation Xrotation Yrotation
        JOINT LeftUpLeg
        {
            OFFSET 120.46774791593188 0.0 0.0
            CHANNELS 3 Zrotation Xrotation Yrotation
            JOINT LeftLeg
            {
                OFFSET 0.0 0.0 -413.9546338072871
                CHANNELS 3 Zrotation Xrotation Yrotation
                JOINT LeftFoot
                {
                    OFFSET 0.0 0.0 -396.56167943926664
                    CHANNELS 3 Zrotation Xrotation Yrotation
                    End Site
                    {
                        OFFSET 0.0 -0.1 0.0
                    }
                }
            }
        }
    }
    JOINT LowerBack
    {
        OFFSET 0.0 0.0 0.1
        CHANNELS 3 Zrotation Xrotation Yrotation
        JOINT Spine
        {
            OFFSET 0.0 0.0 218.21702752662426
            CHANNELS 3 Zrotation Xrotation Yrotation
            JOINT Spine1
            {
                OFFSET 0.0 0.0 249.0719074415191
                CHANNELS 3 Zrotation Xrotation Yrotation
                JOINT LeftShoulder
                {
                    OFFSET 0.1 0.0 0.0
                    CHANNELS 3 Zrotation Xrotation Yrotation
                    JOINT LeftArm
                    {
                        OFFSET 138.99021396220252 0.0 0.0
                        CHANNELS 3 Zrotation Xrotation Yrotation
                        JOINT LeftForeArm
                        {
                            OFFSET 256.5127439873805 0.0 0.0
                            CHANNELS 3 Zrotation Xrotation Yrotation
                            JOINT LeftHand
                            {
                                OFFSET 245.39521604163963 0.0 0.0
                                CHANNELS 3 Zrotation Xrotation Yrotation
                                End Site
                                {
                                    OFFSET 0.1 0.0 0.0
                                }
                            }
                        }
                    }
                }
                JOINT Neck
                {
                    OFFSET 0.0 0.0 0.1
                    CHANNELS 3 Zrotation Xrotation Yrotation
                    JOINT Neck1
                    {
                        OFFSET 0.0 0.0 106.66946640277074
                        CHANNELS 3 Zrotation Xrotation Yrotation
                        End Site
                        {
                            OFFSET 0.0 0.0 117.58587321865413
                        }
                    }
                }
                JOINT RightShoulder
                {
                    OFFSET -0.1 0.0 0.0
                    CHANNELS 3 Zrotation Xrotation Yrotation
                    JOINT RightArm
                    {
                        OFFSET -138.99021396220252 0.0 0.0
                        CHANNELS 3 Zrotation Xrotation Yrotation
                        JOINT RightForeArm
                        {
                            OFFSET -256.5127439873805 0.0 0.0
                            CHANNELS 3 Zrotation Xrotation Yrotation
                            JOINT RightHand
                            {
                                OFFSET -245.39521604163963 0.0 0.0
                                CHANNELS 3 Zrotation Xrotation Yrotation
                                End Site
                                {
                                    OFFSET -0.1 0.0 0.0
                                }
                            }
                        }
                    }
                }
            }
        }
    }
    JOINT RightHipJoint
    {
        OFFSET -0.1 0.0 0.0
        CHANNELS 3 Zrotation Xrotation Yrotation
        JOINT RightUpLeg
        {
            OFFSET -120.46774791593188 0.0 0.0
            CHANNELS 3 Zrotation Xrotation Yrotation
            JOINT RightLeg
            {
                OFFSET 0.0 0.0 -413.9546338072871
                CHANNELS 3 Zrotation Xrotation Yrotation
                JOINT RightFoot
                {
                    OFFSET 0.0 0.0 -396.56167943926664
                    CHANNELS 3 Zrotation Xrotation Yrotation
                    End Site
                    {
                        OFFSET 0.0 -0.1 0.0
                    }
                }
            }
        }
    }
}
MOTION
Frames: 11
Frame Time: 0.03333333333333333
0.0 0.0 809.1280299877927 24.246215784437847 -0.6253904271482732 3.5559982728301116 0.0 0.0 0.0 -0.238328011071794 -14.468411308766518 1.0349734011834393 0.9896646972545909 26.410405607428533 -1.3735793728380132 0.0 0.0 0.0 0.0 0.0 0.0 0.03651817744005192 2.252296877049856 -0.7555834476629741 1.8488070411052644 8.975830853337962e-17 -5.978799032344622e-16 0.0 0.0 1.4908850069360235e-16 -29.72230843019105 11.808317270944174 80.53826020720884 -23.511854510027863 -3.2174609500135675e-15 7.655208712787003e-15 -1.5902773407317582e-15 1.5902773407317582e-15 -3.975693351829395e-16 0.0 0.0 1.4908850069360235e-16 -2.4405248238924333 -0.10630228788031769 -2.715579866288149 0.0 0.0 1.4908850069360235e-16 19.99149642888372 9.098464677611721 -76.08347154911704 40.09349044839988 2.180503592851722e-15 5.975710535884308e-15 -6.361109362927035e-15 6.361109362927035e-15 3.531125038440127e-31 0.0 0.0 0.0 -0.17099026831595562 -10.368156688787774 -3.1742544253174456 -0.9942967410360001 24.033280187573556 0.8335019857091543 0.0 0.0 0.0
0.0 0.0 809.1280299877927 24.22903006597883 -0.6587156853150121 3.605450212285839 0.0 0.0 -1.4908850069360235e-16 -0.24208638322152246 -14.526797211871024 0.9476158033585406 0.9599421607083387 26.604662490173688 -1.3258854918542953 0.0 0.0 -3.975693351829396e-16 0.0 0.0 -1.4908850069360235e-16 0.037000723836827815 2.256085097033828 -0.8811093269633807 1.8072205912169022 1.4107041126915215e-17 8.944197609607185e-16 0.0 0.0 -1.4908850069360235e-16 -29.686493587483543 12.098053625969978 80.75832913068982 -23.430389867274606 -1.1535240044971756e-15 -2.2693388461044744e-15 0.0 0.0 -1.987846675914698e-16 0.0 0.0 -1.4908850069360235e-16 -2.191277074524322 -0.20951939872097966 -2.642234483946644 0.0 0.0 -1.4908850069360235e-16 19.752163450295573 9.642543002044391 -76.1311770125173 40.71100295682597 1.2601894795716532e-14 1.5678946738504865e-14 0.0 0.0 -1.5902773407317584e-15 0.0 0.0 -1.4908850069360235e-16 -0.17144500426831855 -10.278733911903188 -3.203336955381261 -1.0002817441062986 23.98511022212567 0.7610855621496875 0.0 0.0 0.0
0.0 0.0 809.1280299877927 24.200934916153443 -0.681358397465416 3.6939051966687098 0.0 0.0 -9.93923337957349e-17 -0.24840885157849982 -14.607765091479973 0.8211308089324776 0.9140400657692368 26.796849580881325 -1.2801313916328902 0.0 0.0 -3.9756933518293955e-16 0.0 0.0 -9.93923337957349e-17 0.03777935388101232 2.2583044739012292 -1.0006990429302889 1.7463082808156556 -9.673020346681181e-17 1.754310093963023e-16 0.0 0.0 -1.987846675914698e-16 -29.233657402588054 12.474394571541932 81.00632277029572 -23.456566169761118 2.828496163523223e-15 -1.3624419084615866e-14 0.0 0.0 2.33571984419977e-15 0.0 0.0 -1.987846675914698e-16 -2.0706995306644362 -0.2917984632360208 -2.620401772710175 0.0 0.0 -1.987846675914698e-16 19.528062811230246 10.246289716239561 -76.24516351446684 41.52037756966017 2.2547418118141163e-15 5.948096476115294e-15 0.0 0.0 0.0 0.0 0.0 -9.93923337957349e-17 -0.17309782848612454 -10.177266881369846 -3.3125519486711092 -1.0352698546250592 23.87672476705561 0.7466861429625414 0.0 0.0 0.0
0.0 0.0 809.1280299877927 24.19682197838251 -0.6781957617766252 3.752930058164477 0.0 0.0 -4.969616689786745e-17 -0.24923332458320777 -14.792538539949527 0.7759795616825416 0.8918171423908121 26.928395615645833 -1.354033258624448 0.0 0.0 0.0 0.0 0.0 -4.969616689786745e-17 0.03774888359474546 2.278613409573987 -1.0988792636368832 1.6650337712996781 -2.0598436254127863e-16 -4.940209377060691e-16 0.0 0.0 -4.969616689786745e-17 -29.016571409977796 12.75629818119448 81.2477114638065 -23.399945938704114 1.3407918150829707e-15 9.209772608965082e-15 0.0 0.0 -1.2921003393445538e-15 0.0 0.0 -4.969616689786745e-17 -1.977343504868751 -0.33935036332640417 -2.5391848448290117 0.0 0.0 -4.969616689786745e-17 19.12506014125636 10.902798540676073 -76.3607530769559 42.47683792207527 -3.624760249285485e-15 8.233379487758097e-15 -8.827812596100317e-32 6.361109362927035e-15 1.5902773407317588e-15 0.0 0.0 -4.969616689786745e-17 -0.1716655178310555 -10.19069765923652 -3.388354236967369 -1.0653226727337644 23.72377259345212 0.728034018486357 0.0 0.0 -3.975693351829396e-16
0.0 0.0 809.1280299877927 24.218422239534934 -0.6577134535539073 3.8262847915492744 8.620910738379216e-35 -9.93923337957349e-17 9.93923337957349e-17 -0.25125148347184006 -14.91134698889153 0.6713740745601091 0.8414317144082468 27.004531073588655 -1.3264993250413926 0.0 0.0 1.9878466759146976e-15 8.620910738379216e-35 -9.93923337957349e-17 9.93923337957349e-17 0.03671818699997729 2.2174941140005147 -1.186766512862542 1.7204578702301434 1.5295083478027403e-17 1.0186566003789389e-15 0.0 0.0 1.4908850069360235e-16 -28.981107438187962 13.123658595193017 81.40321008340642 -23.51296087035379 -2.4528669326112977e-15 1.9590873208104775e-14 -1.5902773407317584e-15 1.9310840053969444e-32 -1.3914926731402886e-15 0.0 0.0 1.4908850069360235e-16 -2.036280823138502 -0.40765130516736864 -2.5963578510106213 0.0 0.0 1.4908850069360235e-16 18.580615393427337 11.080496231555006 -76.06849012493916 43.4872009525744 -5.908522383596433e-15 2.3564964607777157e-15 0.0 0.0 0.0 8.620910738379216e-35 -9.93923337957349e-17 9.93923337957349e-17 -0.1717305539815427 -10.201180573611305 -3.467004861100825 -1.095183403331532 23.62863509321396 0.7218252229492071 0.0 0.0 -3.975693351829396e-16
0.0 0.0 809.1280299877927 24.227626225985254 -0.5119591456882686 3.9504684849361937 0.0 0.0 4.969616689786745e-17 -0.28245972942879155 -15.210520410536809 0.521764228846457 0.8172650986662677 27.04006854918727 -1.3069472920655847 -1.1034765745125397e-32 -1.5902773407317584e-15 -7.951386703658792e-16 0.0 0.0 4.969616689786745e-17 0.03960459271251701 2.1740897090048694 -1.3607699304110579 1.723672629948832 -3.737478277187787e-18 -2.4845272460700643e-16 3.1805546814635168e-15 2.758691436281349e-33 9.93923337957349e-17 -29.105714926383982 13.081198273228638 81.3816778160717 -23.59814379630109 -1.463310998304608e-15 7.005041529944662e-15 0.0 0.0 2.1369351766083005e-15 3.1805546814635168e-15 2.758691436281349e-33 9.93923337957349e-17 -1.8474211443402977 -0.5205203799566099 -2.588494039345103 3.1805546814635168e-15 2.758691436281349e-33 9.93923337957349e-17 18.315950121886964 11.05755291618363 -75.63172818650574 44.61773211844007 -2.262977403237353e-15 1.1242152744718002e-14 0.0 0.0 -7.951386703658792e-16 0.0 0.0 4.969616689786745e-17 -0.1907439498228048 -10.307640990442604 -3.530089170313103 -1.0723952230617182 23.472825029051585 0.5401450089991489 0.0 0.0 -3.9756933518293955e-16
0.0 0.0 809.1280299877927 24.254286766750347 -0.3170531886156734 4.0055830707321975 0.0 0.0 9.93923337957349e-17 -0.30858262478431087 -15.490578770989526 0.45508420691570317 0.8276813777806605 27.164874673208907 -1.3238216179846138 0.0 0.0 0.0 0.0 0.0 9.93923337957349e-17 0.04121292040641296 2.112204495027085 -1.3726070449032963 1.6617791821975232 3.0535221427398796e-16 4.925854746420233e-16 0.0 0.0 4.969616689786745e-17 -28.882247761929975 13.534529040519088 81.49198141683239 -23.884305312667138 5.830737911589627e-16 -1.0442150034274755e-14 0.0 0.0 -2.3854160110976376e-15 0.0 0.0 4.969616689786745e-17 -1.731223216970689 -0.6184316852639256 -2.644759770724212 0.0 0.0 4.969616689786745e-17 17.973489337972328 11.52522684401455 -75.5076388801713 45.960101308084106 1.5940365165267788e-15 2.0052335795491723e-14 0.0 0.0 1.5902773407317584e-15 0.0 0.0 9.93923337957349e-17 -0.2078410191849263 -10.490307601030544 -3.573974029949963 -1.0640642293042601 23.585100534404006 0.44510069171546296 0.0 0.0 3.975693351829396e-16
0.0 0.0 809.1280299877927 24.273601237905233 -0.06753165988344759 4.1223471193108665 0.0 9.93923337957349e-17 0.0 -0.343010625906635 -15.884335578809827 0.3399218729974754 0.8228995260865517 27.28198961696706 -1.3404688069131923 3.1805546814635164e-15 1.1034765745125397e-32 3.9756933518293955e-16 0.0 9.93923337957349e-17 0.0 0.04263838215466981 2.0190780677253666 -1.4677320597671932 1.593628523804508 9.108947533215951e-17 -5.9767854246755e-16 0.0 0.0 -9.93923337957349e-17 -29.1401373511128 14.077410794594671 81.82935370420697 -23.957838760104785 -4.2252640902853685e-15 4.590180527577792e-15 0.0 0.0 3.0811623476677818e-15 0.0 0.0 -9.93923337957349e-17 -1.7055682298860608 -0.7788001173310034 -2.713288922658572 0.0 0.0 -9.93923337957349e-17 17.544588111498378 12.135912255908218 -75.33428578070149 48.06541534143476 5.809684642279478e-15 -2.5906131869462736e-15 0.0 0.0 -2.3854160110976376e-15 0.0 9.93923337957349e-17 0.0 -0.2291596126587407 -10.684807418080986 -3.6862107491587532 -1.0768243870194134 23.68198691556772 0.39517618880596805 0.0 0.0 0.0
0.0 0.0 809.1280299877927 24.293543613917848 0.004018869037009312 4.157794044484238 0.0 0.0 1.4908850069360235e-16 -0.35393428630057944 -16.02157013447708 0.33229861374356423 0.8346318448475333 27.300857858737448 -1.3906657278325973 0.0 0.0 7.951386703658791e-16 0.0 0.0 1.4908850069360235e-16 0.04187378675131981 1.9393918673891066 -1.531349968903242 1.5941753982145008 1.9046933882087916e-16 -5.990616593170094e-16 0.0 0.0 1.987846675914698e-16 -29.168161990873056 14.240064806682579 81.89349739847842 -24.189543661315128 -5.525724651720064e-15 1.0607163268508049e-14 0.0 0.0 2.683593012484843e-15 0.0 0.0 1.987846675914698e-16 -1.7179152126257973 -0.81609232751452 -2.7654937144131186 0.0 0.0 1.987846675914698e-16 17.29515671921143 12.178788868556946 -74.87405275968159 49.779553642547036 1.1124734588436417e-14 8.863342595907957e-15 0.0 0.0 2.3854160110976376e-15 0.0 0.0 1.4908850069360235e-16 -0.23465167219344532 -10.7013859756647 -3.7131558229580635 -1.0769004886693203 23.690347873812435 0.39984112633820007 -3.4483642953516864e-34 9.93923337957349e-17 3.975693351829396e-16
0.0 0.0 809.1280299877927 24.30533192711878 -0.15244824935120432 4.298678920682186 -3.4483642953516864e-34 9.93923337957349e-17 3.975693351829396e-16 -0.3690361149258604 -15.797200263995462 0.15926475244136817 0.7812280963221365 27.248809530353977 -1.381979477285148 0.0 0.0 3.975693351829396e-16 -3.4483642953516864e-34 9.93923337957349e-17 3.975693351829396e-16 0.04293680637924954 1.879666549772245 -1.6552007632155867 1.649983643690116 1.0725298842244464e-16 5.4517008540183305e-16 0.0 0.0 -3.9756933518293955e-16 -29.28432855950351 14.582496673008146 82.06302191160071 -24.20460263730085 -3.43038748047782e-15 8.413084778775527e-15 0.0 0.0 2.7332891793827097e-15 0.0 0.0 -3.9756933518293955e-16 -1.695116145387907 -0.5542934773876004 -2.868782899099765 0.0 0.0 -3.9756933518293955e-16 17.34354008412139 12.29322548362983 -74.45272611547941 51.31885768692554 -1.8578650839673545e-14 5.3965796578331765e-15 0.0 0.0 1.5902773407317584e-15 -3.4483642953516864e-34 9.93923337957349e-17 3.975693351829396e-16 -0.24149922719804492 -10.419860745569574 -3.7873310194354013 -1.0682758374264623 23.500589882276792 0.17546654789201327 0.0 0.0 3.975693351829396e-16
0.0 0.0 809.1280299877927 24.252274323582284 -0.15489744249072518 4.3879168959637465 0.0 0.0 9.93923337957349e-17 -0.37991425677251817 -15.76151665098372 0.048531150944893964 0.7450564587363252 27.216763900948813 -1.3847318429105597 0.0 0.0 -7.951386703658792e-16 0.0 0.0 9.93923337957349e-17 0.04306974823689149 1.8279652487342841 -1.7163732069433537 1.61693162138079 9.798002121570676e-17 -1.0078485738093406e-16 0.0 0.0 -1.4908850069360235e-16 -29.356882285788377 14.674215851882206 82.02697401995782 -24.353043074703915 -7.092208144299039e-15 1.7788830539035285e-14 0.0 0.0 9.442271710594815e-16 0.0 0.0 -1.4908850069360235e-16 -1.6598625434999048 -0.371537439001416 -2.941537560564134 0.0 0.0 -1.4908850069360235e-16 17.228925750116183 12.393024783754951 -73.86087377831076 53.7090050015668 -9.985326798363532e-15 -5.6391766946085736e-15 0.0 0.0 2.3854160110976376e-15 0.0 0.0 9.93923337957349e-17 -0.24650786069867217 -10.319878979288983 -3.810424752693187 -1.0558643741647413 23.41314534013955 -0.0028967660181715487 0.0 0.0 -3.975693351829396e-16
